<svg xmlns="http://www.w3.org/2000/svg" fill="none" viewBox="0 0 24 24" id="Fork-Spoon--Streamline-Kameleon" height="24" width="24">
  <desc>
    Fork Spoon Streamline Icon: https://streamlinehq.com
  </desc>
  <path fill="#b0675c" d="M12 24c6.627490909090909 0 12 -5.37250909090909 12 -12S18.62749090909091 0 12 0 0 5.37250909090909 0 12s5.37250909090909 12 12 12Z" stroke-width="0.2182"></path>
  <path fill="#000000" d="M11.563636363636363 7.849963636363635c0 -1.5665454545454545 -0.9768 -2.8363636363636364 -2.1818181818181817 -2.8363636363636364s-2.1818181818181817 1.2698181818181817 -2.1818181818181817 2.8363636363636364c0 1.162909090909091 0.43636363636363634 1.9247999999999996 1.309090909090909 2.598763636363636 0.8727272727272727 0.6739636363636363 0.4114909090909091 4.794981818181818 0.08159999999999999 7.652290909090909a0.7867636363636363 0.7867636363636363 0 0 0 0.7824 0.8762181818181818h0.017454545454545455a0.7867636363636363 0.7867636363636363 0 0 0 0.7824 -0.8762181818181818C9.843054545454544 15.24370909090909 9.381818181818181 11.084072727272726 10.254545454545454 10.448945454545454c0.8727272727272727 -0.6351272727272727 1.309090909090909 -1.4360727272727272 1.309090909090909 -2.598981818181818Z" stroke-width="0.2182"></path>
  <path fill="#000000" d="M16.363636363636363 5.013599999999999c-0.24000000000000002 0 -0.43636363636363634 0.19636363636363635 -0.43636363636363634 0.43636363636363634l0 1.7454545454545454a0.43636363636363634 0.43636363636363634 0 1 1 -0.8727272727272727 0v-1.7454545454545454c0 -0.22472727272727272 -0.17236363636363636 -0.4123636363636363 -0.3927272727272727 -0.43418181818181817 -0.01309090909090909 -0.002181818181818182 -0.02836363636363636 -0.002181818181818182 -0.04363636363636364 -0.002181818181818182s-0.030545454545454546 0 -0.04363636363636364 0.002181818181818182c-0.22036363636363634 0.02181818181818182 -0.3927272727272727 0.20945454545454545 -0.3927272727272727 0.43418181818181817v1.7454545454545454a0.43636363636363634 0.43636363636363634 0 1 1 -0.8727272727272727 0l0 -1.7454545454545454c0 -0.24000000000000002 -0.19636363636363635 -0.43636363636363634 -0.43636363636363634 -0.43636363636363634s-0.43636363636363634 0.19636363636363635 -0.43636363636363634 0.43636363636363634v2.4c0 1.1498181818181816 0.4276363636363636 1.9152 1.309090909090909 2.5985454545454543 0.8727272727272727 0.6741818181818181 0.4123636363636363 4.795636363636364 0.08072727272727272 7.651636363636364a0.7876363636363636 0.7876363636363636 0 0 0 0.7832727272727272 0.8770909090909089h0.017454545454545455c0.4712727272727273 0 0.8356363636363636 -0.41018181818181815 0.7832727272727272 -0.8770909090909089 -0.3316363636363636 -2.855781818181818 -0.7919999999999999 -7.016727272727271 0.08072727272727272 -7.651636363636364 0.8932363636363636 -0.6512727272727272 1.309090909090909 -1.4609454545454543 1.309090909090909 -2.5985454545454543v-2.4c0 -0.24000000000000002 -0.19636363636363635 -0.43636363636363634 -0.43636363636363634 -0.43636363636363634Z" stroke-width="0.2182"></path>
</svg>