<svg xmlns="http://www.w3.org/2000/svg" viewBox="0 0 48 48" width="32" height="32">
  <defs>
    <style>
      .fork-fill { fill: #B0675C; stroke: black; }
    </style>
  </defs>

  <g transform="translate(4, 4) scale(1.8) rotate(-90 12 12)">
      <path d="M17.5184 0.677415c0.4651 0.297712 0.6009 0.916155 0.3032 1.381325l-1.497 2.33901c-0.4501 0.72348 -0.4594 1.60213 -0.1199 2.28802L19.069 2.6304c0.0398 -0.05639 0.0844 -0.10741 0.1328 -0.15289 0.3391 -0.31842 0.8661 -0.3658 1.2609 -0.08701 0.0564 0.03983 0.1074 0.08442 0.1529 0.13286 0.3184 0.33905 0.3658 0.86613 0.087 1.26086L17.8329 7.8472c0.8764 0.13873 1.7794 -0.21994 2.2362 -0.95083l0.0057 -0.00908 0 0.00003 1.5001 -2.34393c0.2978 -0.46517 0.9162 -0.60092 1.3814 -0.30321 0.4651 0.29771 0.6009 0.91615 0.3032 1.38132l-1.4974 2.33973c-1.1083 1.76768 -3.3257 2.32107 -5.1496 1.61384L13.3354 14.215l-0.0015 0.0022 -1.2429 1.7596c-0.0422 -0.0161 -0.0843 -0.0311 -0.1262 -0.0451 -0.6478 -0.2159 -1.4802 -0.2586 -2.2414 0.122 -0.01355 0.0068 -0.027 0.0138 -0.04034 0.0209l-0.15727 0.0847c0.02136 -0.0416 0.04591 -0.0823 0.07371 -0.1217l2.1022 -2.9764 3.2714 -4.63169c-1.2053 -1.39841 -1.3321 -3.51166 -0.3419 -5.0959l0.0057 -0.00909 0 0.00003L16.137 0.98063c0.2977 -0.465173 0.9162 -0.600927 1.3814 -0.303215ZM7.8084 22.9083c0.03422 -0.0362 0.0658 -0.0695 0.09555 -0.0993l1.29926 -1.5158 2.49029 -1.2993c0.7579 -0.3248 0.9744 -1.2993 0.6496 -1.9489 -0.3248 -0.6497 -1.2992 -0.9745 -1.9489 -0.6497l-1.40752 0.758c-0.75791 0.433 -1.62411 0.2165 -2.38202 -0.8662 -0.43309 -0.6497 -0.43308 -1.4076 0.10828 -2.0572l2.16546 -2.5986 3.2603 -1.5249c0.9745 -0.3248 1.3429 -1.29017 1.2346 -1.83153 -0.1083 -0.54137 -0.4331 -0.97446 -0.8662 -1.29928s-1.0828 -0.32482 -1.5158 -0.21655l-1.89637 0.64964c-0.43309 0.10827 -0.86616 0.32482 -1.29926 0.64964L4.22264 11.4403c-0.64964 0.4331 -1.08271 0.9745 -1.40753 1.6241L0 18.5863 0.127043 24H5.19713c1.67202 -0.0984 2.27191 -0.7328 2.61127 -1.0917Z" class="fork-fill"></path>
  </g>
</svg>