<svg xmlns="http://www.w3.org/2000/svg" fill="none" viewBox="0 0 16 16" id="No-Food-Allowed--Streamline-Sharp" height="16" width="16">

  <style>
    .not-allowed-fill { fill: black; stroke: white; }
  </style>
  <g id="no-food-allowed">
    <path class="not-allowed-fill" fill-rule="evenodd" d="M0 0.9428066666666666 15.057266666666665 16.00013333333333l0.9428666666666665 -0.9428666666666665L12.276133333333334 11.333333333333332H14.666666666666666V4.666666666666666c0 -2.5773266666666665 -2.0893333333333333 -4.666666666666666 -4.666666666666666 -4.666666666666666h-0.6666666666666666v8.390533333333334l-2.175533333333333 -2.1755199999999997c0.524 -0.5888599999999999 0.8423333333333334 -1.36476 0.8423333333333334 -2.2150133333333333V0h-1.3333333333333333v2.6666666666666665H5.333413333333334V0h-1.3333333333333333l0 2.6666666666666665h-0.39060666666666666l-2.6666666666666665 -2.6666666666666665L0 0.9428066666666666Zm3.333413333333333 6.113126666666666c-1.1292333333333333 -0.49341999999999997 -1.9322533333333332 -1.5944066666666665 -1.9958466666666665 -2.889753333333333L6.0000800000000005 8.828666666666667l0 7.171399999999999h-2.6666666666666665l0 -8.944133333333333ZM9.333333333333332 16.000066666666665v-3.8381333333333334l2.6666666666666665 2.6666666666666665V16h-1.3333333333333333l0 0.00006666666666666667h-1.3333333333333333Z" clip-rule="evenodd" stroke-width="0.5"></path>
  </g>
</svg>