<svg xmlns="http://www.w3.org/2000/svg" fill="none" viewBox="0 0 32 32" id="Roller--Streamline-Flex" height="28" width="28">
   <style>
    .roller-fill { fill: #B0675C; stroke: black; }
  </style>
  <g transform="translate(16, 16) rotate(134) translate(-16, -16) scale(0.75)">
    <path class="roller-fill" fill-rule="evenodd" d="M21.57792857142857 5.048057142857143c0.37735714285714284 -0.9726428571428571 0.9002142857142856 -2.2143214285714286 1.4228571428571428 -3.1127442857142857 0.07714285714285714 -0.13259357142857142 0.16092857142857142 -0.26928642857142854 0.24985714285714283 -0.4084842857142857 1.2387857142857142 -1.9388699999999999 3.965785714285714 -1.9966221428571427 5.592642857142857 -0.36968357142857144 1.6268571428571428 1.6269407142857142 1.5692142857142857 4.353790714285714 -0.3696428571428571 5.592597857142857 -0.1392857142857143 0.08894999999999999 -0.27599999999999997 0.1728 -0.4084285714285714 0.24992142857142857 -0.8985 0.5225785714285714 -2.1400714285714284 1.0453714285714286 -3.1125 1.4227285714285713 -0.4587857142857143 -0.6476142857142857 -0.9548571428571428 -1.2772714285714286 -1.5254999999999999 -1.8479571428571429 -0.5710714285714286 -0.5710714285714286 -1.2012857142857143 -1.0674214285714285 -1.8492857142857142 -1.5263785714285714ZM5.046385714285714 21.578142857142858c-0.9723857142857143 0.37735714285714284 -2.2131642857142855 0.8997857142857143 -3.111072857142857 1.4222142857142857 -0.13259357142857142 0.07714285714285714 -0.26928642857142854 0.16092857142857142 -0.4084842857142857 0.24985714285714283 -1.9388699999999999 1.2387857142857142 -1.9966221428571427 3.965785714285714 -0.36968357142857144 5.592642857142857 1.6269407142857142 1.6268571428571428 4.353790714285714 1.5692142857142857 5.592597857142857 -0.3696428571428571 0.08894999999999999 -0.1392857142857143 0.1728 -0.27599999999999997 0.24992142857142857 -0.4084285714285714 0.52215 -0.8976428571428571 1.0445571428571427 -2.1379285714285716 1.4218285714285714 -3.1103571428571426 0.16469999999999999 0.11678571428571428 0.3305571428571429 0.231 0.4969071428571429 0.34349999999999997 1.3989214285714286 0.9454285714285714 3.298307142857143 0.7926428571428571 4.562978571428571 -0.3261428571428571 0.10247142857142857 -0.09085714285714286 0.20515714285714287 -0.1815 0.30803571428571425 -0.2725714285714286 1.869492857142857 -1.6532142857142855 3.8054357142857143 -3.3651214285714284 5.673749999999999 -5.233414285714286 1.8682928571428572 -1.8683142857142856 3.5802642857142857 -3.804257142857143 5.233478571428571 -5.673749999999999 0.09085714285714286 -0.10287857142857142 0.18171428571428572 -0.2055642857142857 0.27235714285714285 -0.30803571428571425 1.1187857142857143 -1.2646714285714287 1.2717857142857143 -3.164057142857143 0.3261428571428571 -4.562978571428571 -0.5543571428571428 -0.8201785714285713 -1.1526428571428573 -1.6284642857142857 -1.868142857142857 -2.3440714285714286 -0.7157142857142857 -0.7156071428571429 -1.524 -1.3138714285714286 -2.344092857142857 -1.8682714285714284 -1.398942857142857 -0.9455785714285714 -3.298307142857143 -0.7926214285714286 -4.563 0.32618571428571425 -0.10247142857142857 0.09066428571428571 -0.20515714285714287 0.18147857142857143 -0.30805714285714286 0.2724642857142857 -1.869492857142857 1.6531928571428571 -3.8054142857142854 3.365142857142857 -5.673707142857143 5.233435714285714 -1.8682928571428572 1.8682714285714284 -3.580242857142857 3.804214285714286 -5.233435714285714 5.673707142857143 -0.09098571428571428 0.10289999999999999 -0.1818 0.20558571428571426 -0.2724642857142857 0.30805714285714286 -1.1188071428571427 1.264692857142857 -1.2717642857142857 3.164057142857143 -0.32618571428571425 4.563 0.11147142857142855 0.16489285714285715 0.22472142857142857 0.3293142857142857 0.34032857142857137 0.4926Z" clip-rule="evenodd" stroke-width="2"></path>
  </g>
</svg>