<svg xmlns="http://www.w3.org/2000/svg" fill="none" viewBox="0 0 24 24" id="Chef-Toque-Hat--Streamline-Plump" height="24" width="24">
  <desc>
    Chef Toque Hat Streamline Icon: https://streamlinehq.com
  </desc>
  <g id="chef-toque-hat--cook-gear-chef-cooking-nutrition-tools-clothes-hat-clothing-food-kitchenware">
    <path id="Subtract" fill="#b0675c" fill-rule="evenodd" d="M15.922 2.00994C14.96115 0.931035 13.56025 0.25 12 0.25c-1.56025 0 -2.96115 0.681035 -3.922 1.75994C7.33555 1.52942 6.4499 1.25 5.5 1.25c-2.62335 0 -4.75 2.126645 -4.75 4.75 0 1.9477 1.171825 3.6201 2.847535 4.35345 0.242295 3.19105 0.51443 5.9886 0.743535 8.12345 0.20115 -0.01395 0.43679 -0.02845 0.71138 -0.0429 1.29125 -0.06795 3.4514 -0.13515 6.94795 -0.13515 3.49655 0 5.6567 0.0672 6.94795 0.13515 0.27425 0.01445 0.5096 0.02895 0.7106 0.04285 0.2291 -2.1348 0.5012 -4.9324 0.7435 -8.1234C22.07815 9.6201 23.25 7.9477 23.25 6c0 -2.623355 -2.12665 -4.75 -4.75 -4.75 -0.9499 0 -1.83555 0.27942 -2.578 0.75994Zm3.5721 17.95916c-0.1785 -0.01205 -0.3856 -0.0246 -0.6246 -0.03715 -1.2575 -0.0662 -3.39005 -0.1331 -6.8691 -0.1331 -3.47905 0 -5.6116 0.0669 -6.8691 0.1331 -0.239345 0.0126 -0.44671 0.02515 -0.62538 0.0372 0.078335 0.68875 0.147475 1.26825 0.203205 1.7228 0.12611 1.02865 0.948425 1.836 2.001475 1.90585 1.05965 0.07035 2.8228 0.1522 5.2894 0.1522 2.4666 0 4.2297 -0.08185 5.2894 -0.1522 1.053 -0.06985 1.87535 -0.8772 2.00145 -1.90585 0.05575 -0.4546 0.1249 -1.03405 0.20325 -1.72285ZM8.92535 9.2537c0.4122 -0.0412 0.7797 0.2595 0.82095 0.67165l0.5 5c0.0412 0.4122 -0.2595 0.7797 -0.67165 0.82095 -0.4122 0.0412 -0.7797 -0.2595 -0.82095 -0.67165l-0.5 -5c-0.0412 -0.4122 0.2595 -0.7797 0.67165 -0.82095Zm5.32835 0.67165c0.04125 -0.41215 0.40875 -0.71285 0.82095 -0.67165 0.41215 0.04125 0.71285 0.40875 0.67165 0.82095l-0.5 5c-0.04125 0.41215 -0.40875 0.71285 -0.82095 0.67165 -0.41215 -0.04125 -0.71285 -0.40875 -0.67165 -0.82095l0.5 -5Z" clip-rule="evenodd" stroke-width="0.5"></path>
  </g>
</svg>